<?xml version="1.0" encoding="UTF-8"?>
<svg xmlns="http://www.w3.org/2000/svg" xmlns:xlink="http://www.w3.org/1999/xlink" width="400pt" height="400pt" viewBox="0 0 400 400" version="1.1">
<defs>
<linearGradient id="linear0" gradientUnits="userSpaceOnUse" x1="-102.1206" y1="-471.7104" x2="-102.1206" y2="-365.8784" gradientTransform="matrix(1.98,0,0,-2.64,402.04,-912.440133)">
<stop offset="0" style="stop-color:rgb(12.54902%,45.882353%,73.72549%);stop-opacity:1;"/>
<stop offset="1" style="stop-color:rgb(16.078431%,66.666667%,88.235294%);stop-opacity:1;"/>
</linearGradient>
<linearGradient id="linear1" gradientUnits="userSpaceOnUse" x1="-147.0903" y1="-471.7104" x2="-147.0903" y2="-365.8784" gradientTransform="matrix(1.98,0,0,-2.64,402.04,-912.440133)">
<stop offset="0" style="stop-color:rgb(3.921569%,41.568627%,65.882353%);stop-opacity:1;"/>
<stop offset="1" style="stop-color:rgb(8.627451%,60%,78.431373%);stop-opacity:1;"/>
</linearGradient>
<linearGradient id="linear2" gradientUnits="userSpaceOnUse" x1="-117.1738" y1="-471.7104" x2="-117.1738" y2="-365.8784" gradientTransform="matrix(1.98,0,0,-2.64,402.04,-912.440133)">
<stop offset="0" style="stop-color:rgb(12.54902%,45.882353%,73.72549%);stop-opacity:1;"/>
<stop offset="1" style="stop-color:rgb(16.078431%,66.666667%,88.235294%);stop-opacity:1;"/>
</linearGradient>
<linearGradient id="linear3" gradientUnits="userSpaceOnUse" x1="-87.1641" y1="-471.7104" x2="-87.1641" y2="-365.8784" gradientTransform="matrix(1.98,0,0,-2.64,402.04,-912.440133)">
<stop offset="0" style="stop-color:rgb(3.921569%,41.568627%,65.882353%);stop-opacity:1;"/>
<stop offset="1" style="stop-color:rgb(8.627451%,60%,78.431373%);stop-opacity:1;"/>
</linearGradient>
<linearGradient id="linear4" gradientUnits="userSpaceOnUse" x1="-57.2451" y1="-471.7104" x2="-57.2451" y2="-365.8784" gradientTransform="matrix(1.98,0,0,-2.64,402.04,-912.440133)">
<stop offset="0" style="stop-color:rgb(12.54902%,45.882353%,73.72549%);stop-opacity:1;"/>
<stop offset="1" style="stop-color:rgb(16.078431%,66.666667%,88.235294%);stop-opacity:1;"/>
</linearGradient>
<clipPath id="clip1">
  <path d="M 115 112 L 286 112 L 286 285 L 115 285 Z M 115 112 "/>
</clipPath>
<clipPath id="clip2">
  <path d="M 284.621094 198.328125 C 282.402344 189.933594 283.140625 175.621094 282.03125 173.644531 C 274.996094 160.8125 249.816406 158.835938 238.34375 142.050781 C 240.195312 133.660156 236.121094 127.242188 232.050781 121.8125 C 225.753906 115.890625 217.242188 118.355469 210.574219 120.824219 C 203.171875 118.851562 196.136719 114.902344 188.734375 112.433594 C 172.445312 109.964844 156.152344 125.269531 156.152344 125.269531 C 144.304688 135.140625 126.167969 155.875 117.28125 167.722656 C 119.503906 168.214844 121.722656 165.746094 124.316406 165.746094 L 141.34375 159.824219 C 134.3125 167.722656 119.503906 181.050781 115.0625 191.910156 C 120.242188 189.441406 131.347656 181.542969 136.902344 180.554688 C 132.089844 185.988281 122.09375 196.84375 118.761719 203.753906 C 119.132812 204.25 118.761719 204.742188 118.761719 205.234375 C 122.835938 202.273438 132.828125 194.375 137.644531 193.882812 C 132.832031 200.296875 124.316406 213.132812 122.464844 221.527344 C 126.535156 218.070312 136.902344 210.667969 141.34375 208.6875 C 140.234375 212.144531 138.015625 214.613281 136.53125 217.574219 C 134.3125 222.019531 129.496094 227.445312 129.496094 232.878906 C 133.199219 228.433594 137.644531 224.488281 142.085938 221.527344 C 140.234375 226.953125 136.53125 231.398438 135.421875 238.308594 C 138.382812 234.359375 143.9375 232.382812 147.640625 230.902344 L 147.269531 231.398438 C 146.898438 231.890625 142.828125 235.839844 139.867188 240.28125 C 142.453125 240.28125 140.601562 239.789062 143.9375 240.773438 L 145.789062 240.773438 C 145.046875 241.273438 143.9375 242.253906 142.828125 242.75 C 141.34375 243.738281 139.492188 245.21875 138.015625 246.207031 C 145.046875 258.050781 153.5625 267.925781 163.558594 274.339844 C 176.515625 282.734375 190.582031 285.699219 205.019531 283.230469 C 205.019531 282.242188 204.652344 281.253906 204.285156 279.773438 C 203.914062 278.292969 203.539062 277.304688 203.539062 275.824219 C 208.355469 263.976562 205.765625 243.242188 218.347656 234.851562 C 226.867188 228.933594 227.605469 225.964844 237.238281 228.433594 C 242.414062 229.914062 253.898438 234.851562 259.074219 233.371094 C 263.890625 229.914062 266.476562 227.945312 270.925781 223.996094 C 276.109375 225.476562 277.960938 224.488281 279.8125 221.03125 C 277.960938 224.488281 283.140625 208.199219 285.367188 202.273438 Z M 284.621094 198.328125 "/>
</clipPath>
<clipPath id="clip3">
  <path d="M 115 112 L 142 112 L 142 285 L 115 285 Z M 115 112 "/>
</clipPath>
<clipPath id="clip4">
  <path d="M 284.621094 198.328125 C 282.402344 189.933594 283.140625 175.621094 282.03125 173.644531 C 274.996094 160.8125 249.816406 158.835938 238.34375 142.050781 C 240.195312 133.660156 236.121094 127.242188 232.050781 121.8125 C 225.753906 115.890625 217.242188 118.355469 210.574219 120.824219 C 203.171875 118.851562 196.136719 114.902344 188.734375 112.433594 C 172.445312 109.964844 156.152344 125.269531 156.152344 125.269531 C 144.304688 135.140625 126.167969 155.875 117.28125 167.722656 C 119.503906 168.214844 121.722656 165.746094 124.316406 165.746094 L 141.34375 159.824219 C 134.3125 167.722656 119.503906 181.050781 115.0625 191.910156 C 120.242188 189.441406 131.347656 181.542969 136.902344 180.554688 C 132.089844 185.988281 122.09375 196.84375 118.761719 203.753906 C 119.132812 204.25 118.761719 204.742188 118.761719 205.234375 C 122.835938 202.273438 132.828125 194.375 137.644531 193.882812 C 132.832031 200.296875 124.316406 213.132812 122.464844 221.527344 C 126.535156 218.070312 136.902344 210.667969 141.34375 208.6875 C 140.234375 212.144531 138.015625 214.613281 136.53125 217.574219 C 134.3125 222.019531 129.496094 227.445312 129.496094 232.878906 C 133.199219 228.433594 137.644531 224.488281 142.085938 221.527344 C 140.234375 226.953125 136.53125 231.398438 135.421875 238.308594 C 138.382812 234.359375 143.9375 232.382812 147.640625 230.902344 L 147.269531 231.398438 C 146.898438 231.890625 142.828125 235.839844 139.867188 240.28125 C 142.453125 240.28125 140.601562 239.789062 143.9375 240.773438 L 145.789062 240.773438 C 145.046875 241.273438 143.9375 242.253906 142.828125 242.75 C 141.34375 243.738281 139.492188 245.21875 138.015625 246.207031 C 145.046875 258.050781 153.5625 267.925781 163.558594 274.339844 C 176.515625 282.734375 190.582031 285.699219 205.019531 283.230469 C 205.019531 282.242188 204.652344 281.253906 204.285156 279.773438 C 203.914062 278.292969 203.539062 277.304688 203.539062 275.824219 C 208.355469 263.976562 205.765625 243.242188 218.347656 234.851562 C 226.867188 228.933594 227.605469 225.964844 237.238281 228.433594 C 242.414062 229.914062 253.898438 234.851562 259.074219 233.371094 C 263.890625 229.914062 266.476562 227.945312 270.925781 223.996094 C 276.109375 225.476562 277.960938 224.488281 279.8125 221.03125 C 277.960938 224.488281 283.140625 208.199219 285.367188 202.273438 Z M 284.621094 198.328125 "/>
</clipPath>
<clipPath id="clip5">
  <path d="M 140 112 L 201 112 L 201 285 L 140 285 Z M 140 112 "/>
</clipPath>
<clipPath id="clip6">
  <path d="M 284.621094 198.328125 C 282.402344 189.933594 283.140625 175.621094 282.03125 173.644531 C 274.996094 160.8125 249.816406 158.835938 238.34375 142.050781 C 240.195312 133.660156 236.121094 127.242188 232.050781 121.8125 C 225.753906 115.890625 217.242188 118.355469 210.574219 120.824219 C 203.171875 118.851562 196.136719 114.902344 188.734375 112.433594 C 172.445312 109.964844 156.152344 125.269531 156.152344 125.269531 C 144.304688 135.140625 126.167969 155.875 117.28125 167.722656 C 119.503906 168.214844 121.722656 165.746094 124.316406 165.746094 L 141.34375 159.824219 C 134.3125 167.722656 119.503906 181.050781 115.0625 191.910156 C 120.242188 189.441406 131.347656 181.542969 136.902344 180.554688 C 132.089844 185.988281 122.09375 196.84375 118.761719 203.753906 C 119.132812 204.25 118.761719 204.742188 118.761719 205.234375 C 122.835938 202.273438 132.828125 194.375 137.644531 193.882812 C 132.832031 200.296875 124.316406 213.132812 122.464844 221.527344 C 126.535156 218.070312 136.902344 210.667969 141.34375 208.6875 C 140.234375 212.144531 138.015625 214.613281 136.53125 217.574219 C 134.3125 222.019531 129.496094 227.445312 129.496094 232.878906 C 133.199219 228.433594 137.644531 224.488281 142.085938 221.527344 C 140.234375 226.953125 136.53125 231.398438 135.421875 238.308594 C 138.382812 234.359375 143.9375 232.382812 147.640625 230.902344 L 147.269531 231.398438 C 146.898438 231.890625 142.828125 235.839844 139.867188 240.28125 C 142.453125 240.28125 140.601562 239.789062 143.9375 240.773438 L 145.789062 240.773438 C 145.046875 241.273438 143.9375 242.253906 142.828125 242.75 C 141.34375 243.738281 139.492188 245.21875 138.015625 246.207031 C 145.046875 258.050781 153.5625 267.925781 163.558594 274.339844 C 176.515625 282.734375 190.582031 285.699219 205.019531 283.230469 C 205.019531 282.242188 204.652344 281.253906 204.285156 279.773438 C 203.914062 278.292969 203.539062 277.304688 203.539062 275.824219 C 208.355469 263.976562 205.765625 243.242188 218.347656 234.851562 C 226.867188 228.933594 227.605469 225.964844 237.238281 228.433594 C 242.414062 229.914062 253.898438 234.851562 259.074219 233.371094 C 263.890625 229.914062 266.476562 227.945312 270.925781 223.996094 C 276.109375 225.476562 277.960938 224.488281 279.8125 221.03125 C 277.960938 224.488281 283.140625 208.199219 285.367188 202.273438 Z M 284.621094 198.328125 "/>
</clipPath>
<clipPath id="clip7">
  <path d="M 200 112 L 259 112 L 259 285 L 200 285 Z M 200 112 "/>
</clipPath>
<clipPath id="clip8">
  <path d="M 284.621094 198.328125 C 282.402344 189.933594 283.140625 175.621094 282.03125 173.644531 C 274.996094 160.8125 249.816406 158.835938 238.34375 142.050781 C 240.195312 133.660156 236.121094 127.242188 232.050781 121.8125 C 225.753906 115.890625 217.242188 118.355469 210.574219 120.824219 C 203.171875 118.851562 196.136719 114.902344 188.734375 112.433594 C 172.445312 109.964844 156.152344 125.269531 156.152344 125.269531 C 144.304688 135.140625 126.167969 155.875 117.28125 167.722656 C 119.503906 168.214844 121.722656 165.746094 124.316406 165.746094 L 141.34375 159.824219 C 134.3125 167.722656 119.503906 181.050781 115.0625 191.910156 C 120.242188 189.441406 131.347656 181.542969 136.902344 180.554688 C 132.089844 185.988281 122.09375 196.84375 118.761719 203.753906 C 119.132812 204.25 118.761719 204.742188 118.761719 205.234375 C 122.835938 202.273438 132.828125 194.375 137.644531 193.882812 C 132.832031 200.296875 124.316406 213.132812 122.464844 221.527344 C 126.535156 218.070312 136.902344 210.667969 141.34375 208.6875 C 140.234375 212.144531 138.015625 214.613281 136.53125 217.574219 C 134.3125 222.019531 129.496094 227.445312 129.496094 232.878906 C 133.199219 228.433594 137.644531 224.488281 142.085938 221.527344 C 140.234375 226.953125 136.53125 231.398438 135.421875 238.308594 C 138.382812 234.359375 143.9375 232.382812 147.640625 230.902344 L 147.269531 231.398438 C 146.898438 231.890625 142.828125 235.839844 139.867188 240.28125 C 142.453125 240.28125 140.601562 239.789062 143.9375 240.773438 L 145.789062 240.773438 C 145.046875 241.273438 143.9375 242.253906 142.828125 242.75 C 141.34375 243.738281 139.492188 245.21875 138.015625 246.207031 C 145.046875 258.050781 153.5625 267.925781 163.558594 274.339844 C 176.515625 282.734375 190.582031 285.699219 205.019531 283.230469 C 205.019531 282.242188 204.652344 281.253906 204.285156 279.773438 C 203.914062 278.292969 203.539062 277.304688 203.539062 275.824219 C 208.355469 263.976562 205.765625 243.242188 218.347656 234.851562 C 226.867188 228.933594 227.605469 225.964844 237.238281 228.433594 C 242.414062 229.914062 253.898438 234.851562 259.074219 233.371094 C 263.890625 229.914062 266.476562 227.945312 270.925781 223.996094 C 276.109375 225.476562 277.960938 224.488281 279.8125 221.03125 C 277.960938 224.488281 283.140625 208.199219 285.367188 202.273438 Z M 284.621094 198.328125 "/>
</clipPath>
<clipPath id="clip9">
  <path d="M 258 112 L 286 112 L 286 285 L 258 285 Z M 258 112 "/>
</clipPath>
<clipPath id="clip10">
  <path d="M 284.621094 198.328125 C 282.402344 189.933594 283.140625 175.621094 282.03125 173.644531 C 274.996094 160.8125 249.816406 158.835938 238.34375 142.050781 C 240.195312 133.660156 236.121094 127.242188 232.050781 121.8125 C 225.753906 115.890625 217.242188 118.355469 210.574219 120.824219 C 203.171875 118.851562 196.136719 114.902344 188.734375 112.433594 C 172.445312 109.964844 156.152344 125.269531 156.152344 125.269531 C 144.304688 135.140625 126.167969 155.875 117.28125 167.722656 C 119.503906 168.214844 121.722656 165.746094 124.316406 165.746094 L 141.34375 159.824219 C 134.3125 167.722656 119.503906 181.050781 115.0625 191.910156 C 120.242188 189.441406 131.347656 181.542969 136.902344 180.554688 C 132.089844 185.988281 122.09375 196.84375 118.761719 203.753906 C 119.132812 204.25 118.761719 204.742188 118.761719 205.234375 C 122.835938 202.273438 132.828125 194.375 137.644531 193.882812 C 132.832031 200.296875 124.316406 213.132812 122.464844 221.527344 C 126.535156 218.070312 136.902344 210.667969 141.34375 208.6875 C 140.234375 212.144531 138.015625 214.613281 136.53125 217.574219 C 134.3125 222.019531 129.496094 227.445312 129.496094 232.878906 C 133.199219 228.433594 137.644531 224.488281 142.085938 221.527344 C 140.234375 226.953125 136.53125 231.398438 135.421875 238.308594 C 138.382812 234.359375 143.9375 232.382812 147.640625 230.902344 L 147.269531 231.398438 C 146.898438 231.890625 142.828125 235.839844 139.867188 240.28125 C 142.453125 240.28125 140.601562 239.789062 143.9375 240.773438 L 145.789062 240.773438 C 145.046875 241.273438 143.9375 242.253906 142.828125 242.75 C 141.34375 243.738281 139.492188 245.21875 138.015625 246.207031 C 145.046875 258.050781 153.5625 267.925781 163.558594 274.339844 C 176.515625 282.734375 190.582031 285.699219 205.019531 283.230469 C 205.019531 282.242188 204.652344 281.253906 204.285156 279.773438 C 203.914062 278.292969 203.539062 277.304688 203.539062 275.824219 C 208.355469 263.976562 205.765625 243.242188 218.347656 234.851562 C 226.867188 228.933594 227.605469 225.964844 237.238281 228.433594 C 242.414062 229.914062 253.898438 234.851562 259.074219 233.371094 C 263.890625 229.914062 266.476562 227.945312 270.925781 223.996094 C 276.109375 225.476562 277.960938 224.488281 279.8125 221.03125 C 277.960938 224.488281 283.140625 208.199219 285.367188 202.273438 Z M 284.621094 198.328125 "/>
</clipPath>
</defs>
<g id="surface1">
<path style=" stroke:none;fill-rule:nonzero;fill:url(#linear0);" d="M 259.074219 53.691406 L 259.074219 53.199219 L 259.074219 53.691406 L 258.707031 53.199219 L 258.707031 53.691406 L 199.839844 84.792969 L 140.605469 53.691406 L 140.605469 53.199219 L 140.234375 53.691406 L 140.234375 53.199219 L 140.234375 53.691406 L 81 85.285156 L 81 332.597656 L 140.234375 302.480469 L 199.839844 332.597656 L 259.074219 302.480469 L 318.6875 332.597656 L 318.6875 85.285156 Z M 259.074219 53.691406 "/>
<path style=" stroke:none;fill-rule:nonzero;fill:url(#linear1);" d="M 81 85.285156 L 81 332.597656 L 140.605469 302.480469 L 140.605469 53.199219 Z M 81 85.285156 "/>
<path style=" stroke:none;fill-rule:nonzero;fill:url(#linear2);" d="M 199.839844 85.285156 L 199.839844 332.597656 L 140.234375 302.480469 L 140.234375 53.199219 Z M 199.839844 85.285156 "/>
<path style=" stroke:none;fill-rule:nonzero;fill:url(#linear3);" d="M 199.839844 85.285156 L 199.839844 332.597656 L 259.074219 302.480469 L 259.074219 53.199219 Z M 199.839844 85.285156 "/>
<path style=" stroke:none;fill-rule:nonzero;fill:url(#linear4);" d="M 318.6875 85.285156 L 318.6875 332.597656 L 258.707031 302.480469 L 258.707031 53.199219 Z M 318.6875 85.285156 "/>
<g clip-path="url(#clip1)" clip-rule="nonzero">
<g clip-path="url(#clip2)" clip-rule="nonzero">
<path style=" stroke:none;fill-rule:nonzero;fill:rgb(100%,100%,100%);fill-opacity:1;" d="M 199.839844 99.601562 C 260.773438 99.601562 310.167969 144.242188 310.167969 199.316406 C 310.167969 254.386719 260.773438 299.023438 199.839844 299.023438 C 138.914062 299.023438 89.515625 254.386719 89.515625 199.316406 C 89.515625 144.242188 138.914062 99.601562 199.839844 99.601562 Z M 199.839844 99.601562 "/>
</g>
</g>
<g clip-path="url(#clip3)" clip-rule="nonzero">
<g clip-path="url(#clip4)" clip-rule="nonzero">
<path style=" stroke:none;fill-rule:nonzero;fill:rgb(94.901961%,94.901961%,94.901961%);fill-opacity:1;" d="M 82.480469 89.726562 L 82.480469 340 L 141.347656 308.898438 L 141.347656 58.132812 Z M 82.480469 89.726562 "/>
</g>
</g>
<g clip-path="url(#clip5)" clip-rule="nonzero">
<g clip-path="url(#clip6)" clip-rule="nonzero">
<path style=" stroke:none;fill-rule:nonzero;fill:rgb(100%,100%,100%);fill-opacity:1;" d="M 200.214844 89.726562 L 200.214844 340 L 140.976562 308.898438 L 140.976562 58.132812 Z M 200.214844 89.726562 "/>
</g>
</g>
<g clip-path="url(#clip7)" clip-rule="nonzero">
<g clip-path="url(#clip8)" clip-rule="nonzero">
<path style=" stroke:none;fill-rule:nonzero;fill:rgb(94.901961%,94.901961%,94.901961%);fill-opacity:1;" d="M 200.214844 89.726562 L 200.214844 340 L 258.707031 308.898438 L 258.707031 58.132812 Z M 200.214844 89.726562 "/>
</g>
</g>
<g clip-path="url(#clip9)" clip-rule="nonzero">
<g clip-path="url(#clip10)" clip-rule="nonzero">
<path style=" stroke:none;fill-rule:nonzero;fill:rgb(100%,100%,100%);fill-opacity:1;" d="M 317.941406 89.726562 L 317.941406 340 L 258.707031 308.898438 L 258.707031 58.132812 Z M 317.941406 89.726562 "/>
</g>
</g>
</g>
</svg>
